<?xml version="1.0" encoding="UTF-8" standalone="no"?>
<!-- Created with Inkscape (http://www.inkscape.org/) -->

<svg
   xmlns:dc="http://purl.org/dc/elements/1.1/"
   xmlns:cc="http://creativecommons.org/ns#"
   xmlns:rdf="http://www.w3.org/1999/02/22-rdf-syntax-ns#"
   xmlns:svg="http://www.w3.org/2000/svg"
   xmlns="http://www.w3.org/2000/svg"
   xmlns:sodipodi="http://sodipodi.sourceforge.net/DTD/sodipodi-0.dtd"
   xmlns:inkscape="http://www.inkscape.org/namespaces/inkscape"
   width="53.302887mm"
   height="30.266146mm"
   viewBox="0 0 188.8685 107.24225"
   id="svg2"
   version="1.1"
   inkscape:version="0.91 r13725"
   sodipodi:docname="elsa-logo 1.svg">
  <defs
     id="defs4">
    <clipPath
       id="clipPath3371"
       clipPathUnits="userSpaceOnUse">
      <path
         inkscape:connector-curvature="0"
         id="path3373"
         d="m 117,0 361,0 0,842 -361,0 0,-842 z" />
    </clipPath>
    <clipPath
       id="clipPath3381"
       clipPathUnits="userSpaceOnUse">
      <path
         inkscape:connector-curvature="0"
         id="path3383"
         d="m 117,842 361.6347,0 0,-842 L 117,0 l 0,842 z" />
    </clipPath>
    <clipPath
       id="clipPath3387"
       clipPathUnits="userSpaceOnUse">
      <path
         inkscape:connector-curvature="0"
         id="path3389"
         d="m 117,0 361,0 0,842 -361,0 0,-842 z" />
    </clipPath>
    <clipPath
       id="clipPath3419"
       clipPathUnits="userSpaceOnUse">
      <path
         inkscape:connector-curvature="0"
         id="path3421"
         d="m 117,0 361,0 0,842 -361,0 0,-842 z" />
    </clipPath>
    <clipPath
       id="clipPath3445"
       clipPathUnits="userSpaceOnUse">
      <path
         inkscape:connector-curvature="0"
         id="path3447"
         d="m 117,842 361.6347,0 0,-842 L 117,0 l 0,842 z" />
    </clipPath>
    <clipPath
       id="clipPath3451"
       clipPathUnits="userSpaceOnUse">
      <path
         inkscape:connector-curvature="0"
         id="path3453"
         d="m 117,0 361,0 0,842 -361,0 0,-842 z" />
    </clipPath>
    <clipPath
       id="clipPath3499"
       clipPathUnits="userSpaceOnUse">
      <path
         inkscape:connector-curvature="0"
         id="path3501"
         d="m 153.7151,39.19796 291.2469,0 0,210.8262 -291.2469,0 0,-210.8262 z" />
    </clipPath>
    <clipPath
       id="clipPath3511"
       clipPathUnits="userSpaceOnUse">
      <path
         inkscape:connector-curvature="0"
         id="path3513"
         d="m 117,842 361.6347,0 0,-842 L 117,0 l 0,842 z" />
    </clipPath>
    <clipPath
       id="clipPath3517"
       clipPathUnits="userSpaceOnUse">
      <path
         inkscape:connector-curvature="0"
         id="path3519"
         d="m 117,0 361,0 0,842 -361,0 0,-842 z" />
    </clipPath>
    <clipPath
       id="clipPath3537"
       clipPathUnits="userSpaceOnUse">
      <path
         inkscape:connector-curvature="0"
         id="path3539"
         d="m 117,0 361,0 0,842 -361,0 0,-842 z" />
    </clipPath>
    <clipPath
       id="clipPath3593"
       clipPathUnits="userSpaceOnUse">
      <path
         inkscape:connector-curvature="0"
         id="path3595"
         d="m 117,842 361.6347,0 0,-842 L 117,0 l 0,842 z" />
    </clipPath>
    <clipPath
       id="clipPath3599"
       clipPathUnits="userSpaceOnUse">
      <path
         inkscape:connector-curvature="0"
         id="path3601"
         d="m 117,0 361,0 0,842 -361,0 0,-842 z" />
    </clipPath>
    <clipPath
       id="clipPath3619"
       clipPathUnits="userSpaceOnUse">
      <path
         inkscape:connector-curvature="0"
         id="path3621"
         d="m 117,0 361,0 0,842 -361,0 0,-842 z" />
    </clipPath>
    <clipPath
       id="clipPath3633"
       clipPathUnits="userSpaceOnUse">
      <path
         inkscape:connector-curvature="0"
         id="path3635"
         d="m 117,842 361.6347,0 0,-842 L 117,0 l 0,842 z" />
    </clipPath>
    <clipPath
       id="clipPath3639"
       clipPathUnits="userSpaceOnUse">
      <path
         inkscape:connector-curvature="0"
         id="path3641"
         d="m 117,0 361,0 0,842 -361,0 0,-842 z" />
    </clipPath>
    <clipPath
       id="clipPath3651"
       clipPathUnits="userSpaceOnUse">
      <path
         inkscape:connector-curvature="0"
         id="path3653"
         d="m 117,0 361,0 0,842 -361,0 0,-842 z" />
    </clipPath>
    <clipPath
       id="clipPath3665"
       clipPathUnits="userSpaceOnUse">
      <path
         inkscape:connector-curvature="0"
         id="path3667"
         d="m 117,842 361.6347,0 0,-842 L 117,0 l 0,842 z" />
    </clipPath>
    <clipPath
       id="clipPath3671"
       clipPathUnits="userSpaceOnUse">
      <path
         inkscape:connector-curvature="0"
         id="path3673"
         d="m 117,0 361,0 0,842 -361,0 0,-842 z" />
    </clipPath>
    <clipPath
       id="clipPath3683"
       clipPathUnits="userSpaceOnUse">
      <path
         inkscape:connector-curvature="0"
         id="path3685"
         d="m 117,0 361,0 0,842 -361,0 0,-842 z" />
    </clipPath>
    <clipPath
       id="clipPath3697"
       clipPathUnits="userSpaceOnUse">
      <path
         inkscape:connector-curvature="0"
         id="path3699"
         d="m 117,842 361.6347,0 0,-842 L 117,0 l 0,842 z" />
    </clipPath>
    <clipPath
       id="clipPath3703"
       clipPathUnits="userSpaceOnUse">
      <path
         inkscape:connector-curvature="0"
         id="path3705"
         d="m 117,0 361,0 0,842 -361,0 0,-842 z" />
    </clipPath>
    <clipPath
       id="clipPath3731"
       clipPathUnits="userSpaceOnUse">
      <path
         inkscape:connector-curvature="0"
         id="path3733"
         d="m 117,0 361,0 0,842 -361,0 0,-842 z" />
    </clipPath>
    <clipPath
       id="clipPath3751"
       clipPathUnits="userSpaceOnUse">
      <path
         inkscape:connector-curvature="0"
         id="path3753"
         d="m 117,842 361.6347,0 0,-842 L 117,0 l 0,842 z" />
    </clipPath>
    <clipPath
       id="clipPath3757"
       clipPathUnits="userSpaceOnUse">
      <path
         inkscape:connector-curvature="0"
         id="path3759"
         d="m 117,0 361,0 0,842 -361,0 0,-842 z" />
    </clipPath>
    <clipPath
       id="clipPath3785"
       clipPathUnits="userSpaceOnUse">
      <path
         inkscape:connector-curvature="0"
         id="path3787"
         d="m 117,0 361,0 0,842 -361,0 0,-842 z" />
    </clipPath>
    <clipPath
       id="clipPath3805"
       clipPathUnits="userSpaceOnUse">
      <path
         inkscape:connector-curvature="0"
         id="path3807"
         d="m 117,842 361.6347,0 0,-842 L 117,0 l 0,842 z" />
    </clipPath>
    <clipPath
       id="clipPath3811"
       clipPathUnits="userSpaceOnUse">
      <path
         inkscape:connector-curvature="0"
         id="path3813"
         d="m 117,0 361,0 0,842 -361,0 0,-842 z" />
    </clipPath>
    <clipPath
       id="clipPath3843"
       clipPathUnits="userSpaceOnUse">
      <path
         inkscape:connector-curvature="0"
         id="path3845"
         d="m 117,0 361,0 0,842 -361,0 0,-842 z" />
    </clipPath>
  </defs>
  <sodipodi:namedview
     id="base"
     pagecolor="#ffffff"
     bordercolor="#666666"
     borderopacity="1.0"
     inkscape:pageopacity="0.0"
     inkscape:pageshadow="2"
     inkscape:zoom="0.49497475"
     inkscape:cx="108.73152"
     inkscape:cy="9.3951653"
     inkscape:document-units="px"
     inkscape:current-layer="layer1"
     showgrid="false"
     inkscape:window-width="1211"
     inkscape:window-height="948"
     inkscape:window-x="1487"
     inkscape:window-y="12"
     inkscape:window-maximized="0"
     fit-margin-top="0"
     fit-margin-left="0"
     fit-margin-right="0"
     fit-margin-bottom="0" />
  <metadata
     id="metadata7">
    <rdf:RDF>
      <cc:Work
         rdf:about="">
        <dc:format>image/svg+xml</dc:format>
        <dc:type
           rdf:resource="http://purl.org/dc/dcmitype/StillImage" />
        <dc:title></dc:title>
      </cc:Work>
    </rdf:RDF>
  </metadata>
  <g
     inkscape:label="Layer 1"
     inkscape:groupmode="layer"
     id="layer1"
     transform="translate(-62.2418,-58.41285)">
    <g
       id="g3365"
       transform="matrix(1.25,0,0,-1.25,732.49297,690.30308)" />
    <g
       id="g3377"
       transform="matrix(1.25,0,0,-1.25,-208.9692,1011.5316)">
      <g
         id="g3379"
         clip-path="url(#clipPath3381)">
        <g
           id="g3385"
           clip-path="url(#clipPath3387)">
          <path
             d="m 304.2844,737.7063 c -3.8492,3.9251 -7.6193,4.6389 -11.8488,4.6389 -5.925,0.0899 -11.6167,-2.4968 -11.463,-8.1174 0.1537,-5.8874 6.7701,-7.0471 11.5396,-8.0282 6.7694,-1.3383 16.0794,-2.676 15.6942,-12.935 -0.2314,-9.7237 -8.9248,-12.3104 -15.6183,-12.3104 -6.6929,0 -13.308,2.9446 -16.6164,8.8313 l 2.769,2.8558 c 3.1547,-5.2652 8.8483,-7.4947 13.9252,-7.4947 4.6158,0 11.6185,1.4276 11.8481,8.3853 0.1537,6.3333 -6.1564,7.5829 -12.387,8.7426 -7.3854,1.4271 -14.6925,3.0327 -14.7702,11.864 -0.0772,8.6532 7.3848,12.4003 15.0788,12.3098 5.5386,0 10.3859,-1.783 14.1542,-5.8861 l -2.3054,-2.8559 z"
             style="fill:#231f20;fill-opacity:1;fill-rule:nonzero;stroke:none"
             id="path3391"
             inkscape:connector-curvature="0" />
          <path
             d="m 267.9786,761.6134 -2.9136,-80.0082 -3.6973,0.1343 2.913,80.0082 3.6979,-0.1343 z"
             style="fill:#231f20;fill-opacity:1;fill-rule:nonzero;stroke:none"
             id="path3393"
             inkscape:connector-curvature="0" />
          <path
             d="m 320.0563,723.8275 c 0,-9.9242 7.2014,-16.566 16.1645,-16.566 22.0092,0 22.0092,33.0512 0,33.0512 -8.9631,0 -16.1645,-6.5629 -16.1645,-16.4852 m 36.2534,19.7669 0,-39.5357 -3.922,0 0,8.4042 c -3.8413,-6.1625 -9.7632,-9.0445 -16.1669,-9.0445 -11.042,0 -20.0865,8.324 -20.0865,20.4091 0,12.0832 9.0445,20.2475 20.0865,20.2475 6.4037,0 12.8857,-2.9628 16.1669,-9.1241 l 0,8.6435 3.922,0 z"
             style="fill:#231f20;fill-opacity:1;fill-rule:nonzero;stroke:none"
             id="path3395"
             inkscape:connector-curvature="0" />
          <path
             d="m 253.0612,725.4261 c -0.0789,9.7638 -6.4814,15.2058 -16.0052,15.2058 -8.1625,0 -15.2053,-5.521 -16.0855,-15.2058 l 32.0907,0 z m -36.0924,-1.5984 c 0,11.8427 8.9632,20.4055 20.0872,20.4055 11.124,0 21.0469,-6.8016 19.5269,-22.2474 l -35.6124,0 c 0.8001,-9.2821 7.923,-14.6451 16.0855,-14.6451 5.202,0 11.2843,2.0813 14.2453,6.0027 l 2.8006,-2.241 c -3.8412,-5.0423 -10.723,-7.603 -17.0459,-7.603 -11.124,0 -20.0872,7.7615 -20.0872,20.3283"
             style="fill:#231f20;fill-opacity:1;fill-rule:nonzero;stroke:none"
             id="path3397"
             inkscape:connector-curvature="0" />
          <path
             d="m 250.4787,697.641 44.7943,-9.457 -0.5212,-2.4713 -44.7955,9.457 0.5224,2.4713 z"
             style="fill:#231f20;fill-opacity:1;fill-rule:nonzero;stroke:none"
             id="path3399"
             inkscape:connector-curvature="0" />
          <g
             id="g3401"
             transform="matrix(0.6075036,0,0,0.6075036,250.4787,697.641)">
            <path
               d="M 0,0 73.735,-15.567 72.877,-19.635 -0.86,-4.068 0,0 Z"
               style="fill:none;stroke:#231f20;stroke-width:1;stroke-linecap:butt;stroke-linejoin:miter;stroke-miterlimit:10;stroke-dasharray:none;stroke-opacity:1"
               id="path3403"
               inkscape:connector-curvature="0" />
          </g>
          <path
             d="m 269.9827,758.6489 c 0,-2.1244 -1.7211,-3.8461 -3.8462,-3.8461 -2.1244,0 -3.8455,1.7217 -3.8455,3.8461 0,2.1245 1.7211,3.8461 3.8455,3.8461 2.1251,0 3.8462,-1.7216 3.8462,-3.8461"
             style="fill:#782f9a;fill-opacity:1;fill-rule:nonzero;stroke:none"
             id="path3405"
             inkscape:connector-curvature="0" />
          <path
             d="m 253.3961,697.9273 c 0.2898,-2.105 -1.181,-4.0466 -3.2842,-4.3351 -2.105,-0.2904 -4.0459,1.1785 -4.3363,3.2841 -0.2898,2.1044 1.1804,4.0442 3.2847,4.3358 2.1032,0.2891 4.0448,-1.1816 4.3358,-3.2848"
             style="fill:#fddd10;fill-opacity:1;fill-rule:nonzero;stroke:none"
             id="path3407"
             inkscape:connector-curvature="0" />
          <path
             d="m 295.9039,688.3561 c 0.291,-2.1044 -1.1792,-4.0447 -3.2842,-4.3351 -2.1032,-0.2904 -4.0448,1.1804 -4.3345,3.2848 -0.2898,2.1038 1.1809,4.0441 3.2841,4.3345 2.1038,0.2898 4.0448,-1.1792 4.3346,-3.2842"
             style="fill:#2ba543;fill-opacity:1;fill-rule:nonzero;stroke:none"
             id="path3409"
             inkscape:connector-curvature="0" />
          <path
             d="m 266.9653,680.5473 c 0,-2.1245 -1.7223,-3.8461 -3.8461,-3.8461 -2.1232,0 -3.8461,1.7216 -3.8461,3.8461 0,2.1244 1.7229,3.8461 3.8461,3.8461 2.1238,0 3.8461,-1.7217 3.8461,-3.8461"
             style="fill:#293d9b;fill-opacity:1;fill-rule:nonzero;stroke:none"
             id="path3411"
             inkscape:connector-curvature="0" />
          <path
             d="m 368.0636,702.1806 -6.4687,0 0,6.4681 6.4687,0 0,-6.4681 z"
             style="fill:#ed1c24;fill-opacity:1;fill-rule:nonzero;stroke:none"
             id="path3413"
             inkscape:connector-curvature="0" />
        </g>
      </g>
    </g>
  </g>
</svg>
