<?xml version="1.0" encoding="UTF-8" standalone="no"?>
<svg
   xmlns:dc="http://purl.org/dc/elements/1.1/"
   xmlns:cc="http://creativecommons.org/ns#"
   xmlns:rdf="http://www.w3.org/1999/02/22-rdf-syntax-ns#"
   xmlns:svg="http://www.w3.org/2000/svg"
   xmlns="http://www.w3.org/2000/svg"
   xmlns:sodipodi="http://sodipodi.sourceforge.net/DTD/sodipodi-0.dtd"
   xmlns:inkscape="http://www.inkscape.org/namespaces/inkscape"
   viewBox="0 0 612.54669 229.86667"
   height="229.86667"
   width="612.54669"
   xml:space="preserve"
   id="svg2"
   version="1.1"
   inkscape:version="0.91 r13725"
   sodipodi:docname="ELSA-MAINLOGO-white.svg"><sodipodi:namedview
     pagecolor="#ffffff"
     bordercolor="#666666"
     borderopacity="1"
     objecttolerance="10"
     gridtolerance="10"
     guidetolerance="10"
     inkscape:pageopacity="0"
     inkscape:pageshadow="2"
     inkscape:window-width="1085"
     inkscape:window-height="740"
     id="namedview62"
     showgrid="false"
     inkscape:zoom="1.7892514"
     inkscape:cx="122.05202"
     inkscape:cy="37.298872"
     inkscape:window-x="133"
     inkscape:window-y="46"
     inkscape:window-maximized="0"
     inkscape:current-layer="g12" /><metadata
     id="metadata8"><rdf:RDF><cc:Work
         rdf:about=""><dc:format>image/svg+xml</dc:format><dc:type
           rdf:resource="http://purl.org/dc/dcmitype/StillImage" /><dc:title></dc:title></cc:Work></rdf:RDF></metadata><defs
     id="defs6" /><g
     transform="matrix(1.3333333,0,0,-1.3333333,0,229.86667)"
     id="g10"><g
       transform="scale(0.1)"
       id="g12"><path
         id="path14"
         style="fill:#27963c;fill-opacity:1;fill-rule:nonzero;stroke:none"
         d="m 4380.36,880.238 -14.79,32.875 -5.1,11.348 -39.56,87.999 H 4052.52 3793.7 3524.02 l -21.44,-47.374 -23.12,-51.125 -0.53,-1.121 -14.73,-32.602 -59.59,-131.765 -7.96,-17.625 h 269.69 512.87 231.5 c 12.47,0 24.37,1.14 35.43,3.14 l -65.78,146.25" /><path
         id="path16"
         style="fill:#0d6652;fill-opacity:1;fill-rule:nonzero;stroke:none"
         d="m 4566.72,465.941 -71.96,159.938 -47.18,104.891 -1.44,3.218 -65.78,146.25 -14.79,32.875 -5.1,11.348 -39.56,87.999 -5.45,12.11 -39.23,87.29 -5.39,11.84 -14.87,33.07 -200.06,444.96 -31.25,69.27 -4.46,10.01 c -9.5,21.26 -28.82,35.41 -50.48,39.94 h -30.07 -33.36 -30.11 c -21.68,-4.53 -40.93,-18.68 -50.52,-39.94 l -4.43,-10.01 -31.19,-69.27 c 0.04,-0.2 0.1,-0.41 0.14,-0.63 l 0.01,0.03 c 0.42,-2.55 1.01,-5.13 1.73,-7.7 0.75,-2.62 1.67,-5.24 2.84,-7.82 l 19.39,-43.12 109.64,-242.42 -0.29,-0.65 64.14,-142.65 15.69,-34.93 5.29,-11.73 39.04,-86.83 4.86,-10.82 59.15,-131.515 0.33,-0.707 5.02,-11.07 62.19,-138.32 8.47,-18.836 110.09,-244.84 43.42,-96.621 c 15.69,-34.84 57.64,-50.992 93.33,-35.93 l 95.85,40.488 c 35.57,15.09 51.94,55.93 36.35,90.832" /><path
         id="path18"
         style="fill:#194034;fill-opacity:1;fill-rule:nonzero;stroke:none"
         d="m 4431.9,765.652 -51.54,114.586 -14.79,32.875 -5.1,11.348 -29.94,66.602 c -13.64,23.337 -21.15,20.987 -35.32,21.317 -1.34,0.04 -4.42,0.06 -8.82,0.08 h -175.52 c -21.66,-0.02 -39.63,-0.05 -49.63,-0.06 -5.43,-0.01 -8.59,-0.02 -8.68,-0.02 l 6.77,-15.04 52.97,-117.18 1,-2.207 4.15,-9.117 62.39,-137.988 h 222.9 c 24.15,2.8 31.53,17.566 29.16,34.804" /><path
         id="path20"
         style="fill:#232d65;fill-opacity:1;fill-rule:nonzero;stroke:none"
         d="m 2832.65,1125.28 -21.46,5.18 -85.61,20.62 -94.97,-262.478 121.08,-32.696 c 98.53,-26.211 123.16,-86.066 123.16,-140.316 0,-89.82 -82.67,-177.731 -232.27,-177.731 -135.38,0 -199.29,52.262 -244.51,108.332 l 0.14,0.161 c -1.18,1.289 -2.22,2.597 -3.36,3.886 -10.43,11.66 -20.01,23.422 -29.06,34.692 -5.26,6.531 -10.41,12.91 -15.54,18.992 -11.52,7.797 -26.4,9.738 -40.33,3.629 l -155.4,-68.129 c -22.99,-10.082 -34.57,-37.973 -25.88,-62.281 0,0 7.82,-21.192 16.82,-40.032 9.17,-16.589 20.39,-32.98 33.57,-48.968 78.75,-95.379 229.82,-174.789 463.55,-174.789 348.43,0 520.81,181.48 520.81,424.64 0,157.199 -66.82,323.718 -330.74,387.288" /><path
         id="path22"
         style="fill:#27963c;fill-opacity:1;fill-rule:nonzero;stroke:none"
         d="m 3922.99,1300.52 -108.84,241.97 -19.23,42.52 c -1.23,2.78 -2.21,5.6 -3,8.42 -0.74,2.56 -1.3,5.12 -1.74,7.67 l -200.95,-444.33 -17.28,-38.21 -3.13,-7.06 -41.27,-91.23 -24.97,-55.184 -23.12,-51.125 -0.53,-1.121 -14.73,-32.602 -59.59,-131.765 -7.96,-17.625 -47.54,-105.11 -72.32,-159.867 c -15.76,-34.871 0.72,-75.711 36.57,-90.793 l 96.28,-40.457 c 35.89,-15.062 78.02,1.09 93.84,35.91 l 43.6,96.578 110.75,244.903 8.51,18.836 62.43,138.062 4.15,9.121 1,2.207 59.78,132.222 4.34,9.61 39.64,87.67 4.81,10.64 16.46,36.39 64.55,142.65 -0.51,1.1" /><path
         id="path24"
         style="fill:#ffffff;fill-opacity:1;fill-rule:nonzero;stroke:none"
         d="m 57.7148,215.102 c -1.375,0.058 -2.7031,0.257 -4.0585,0.418 1.332,-0.18 2.6914,-0.321 4.0585,-0.418" /><path
         id="path26"
         style="fill:#ffffff;fill-opacity:1;fill-rule:nonzero;stroke:none"
         d="m 59.2813,214.949 h 1.4062 c -1.0117,0 -1.9805,0.102 -2.9727,0.153 0.5313,-0.012 1.0235,-0.153 1.5665,-0.153" /><path
         id="path28"
         style="fill:#ffffff;fill-opacity:1;fill-rule:nonzero;stroke:none"
         d="M 0,5.17969 V 194.559 H 117.41 V 167.77 H 28.9492 V 117.461 H 98.7461 V 90.6719 H 28.9492 V 31.9688 H 120.117 V 5.17969 H 0" /><path
         id="path30"
         style="fill:#ffffff;fill-opacity:1;fill-rule:nonzero;stroke:none"
         d="m 215.098,152.09 -25.16,-70.8791 h 50.32 z M 267.039,5.17969 249.727,54.4219 H 180.469 L 162.887,5.17969 H 132.852 L 200.488,194.559 h 28.946 L 297.34,5.17969 h -30.301" /><path
         id="path32"
         style="fill:#ffffff;fill-opacity:1;fill-rule:nonzero;stroke:none"
         d="m 351.199,171.02 v -65.739 h 35.715 c 20.02,0 34.086,10.008 34.086,33.27 0,20.289 -11.09,32.469 -38.145,32.469 z M 430.469,5.17969 389.352,77.9609 H 351.199 V 5.17969 H 321.715 V 194.559 h 64.113 c 38.418,0 65.203,-13.258 65.203,-55.188 0,-25.43 -13.258,-43.289 -33.82,-53.8397 L 461.039,5.17969 h -30.57" /><path
         id="path34"
         style="fill:#ffffff;fill-opacity:1;fill-rule:nonzero;stroke:none"
         d="M 488.113,5.17969 V 194.559 h 28.68 V 31.9688 H 600.66 V 5.17969 H 488.113" /><path
         id="path36"
         style="fill:#ffffff;fill-opacity:1;fill-rule:nonzero;stroke:none"
         d="M 669.656,91.4805 V 5.17969 H 640.172 V 91.4805 l -64.66,103.0785 h 30.574 l 48.695,-77.379 48.696,77.379 h 30.57 L 669.656,91.4805" /><path
         id="path38"
         style="fill:#ffffff;fill-opacity:1;fill-rule:nonzero;stroke:none"
         d="M 817.945,5.17969 V 194.559 h 28.676 V 31.9688 h 83.867 V 5.17969 H 817.945" /><path
         id="path40"
         style="fill:#ffffff;fill-opacity:1;fill-rule:nonzero;stroke:none"
         d="M 954.859,5.17969 V 194.559 H 1072.27 V 167.77 H 983.809 V 117.461 H 1053.6 V 90.6719 H 983.809 V 31.9688 h 91.171 V 5.17969 H 954.859" /><path
         id="path42"
         style="fill:#ffffff;fill-opacity:1;fill-rule:nonzero;stroke:none"
         d="m 1169.96,152.09 -25.17,-70.8791 h 50.33 z M 1221.9,5.17969 1204.58,54.4219 h -69.25 L 1117.74,5.17969 h -30.03 l 67.64,189.37931 h 28.94 L 1252.2,5.17969 h -30.3" /><path
         id="path44"
         style="fill:#ffffff;fill-opacity:1;fill-rule:nonzero;stroke:none"
         d="m 1306.06,171.02 v -65.739 h 35.71 c 20.02,0 34.09,10.008 34.09,33.27 0,20.289 -11.09,32.469 -38.15,32.469 z M 1385.33,5.17969 1344.21,77.9609 h -38.15 V 5.17969 h -29.49 V 194.559 h 64.12 c 38.42,0 65.2,-13.258 65.2,-55.188 0,-25.43 -13.26,-43.289 -33.81,-53.8397 L 1415.9,5.17969 h -30.57" /><path
         id="path46"
         style="fill:#ffffff;fill-opacity:1;fill-rule:nonzero;stroke:none"
         d="M 1566.88,5.17969 1471.65,148.02 V 5.17969 h -28.68 V 194.559 H 1473 L 1562.01,59.5703 V 194.559 h 28.95 V 5.17969 h -24.08" /><path
         id="path48"
         style="fill:#ffffff;fill-opacity:1;fill-rule:nonzero;stroke:none"
         d="M 1635.08,5.17969 V 194.559 h 28.95 V 5.17969 h -28.95" /><path
         id="path50"
         style="fill:#ffffff;fill-opacity:1;fill-rule:nonzero;stroke:none"
         d="M 1832.04,5.17969 1736.81,148.02 V 5.17969 h -28.68 V 194.559 h 30.03 L 1827.17,59.5703 V 194.559 h 28.95 V 5.17969 h -24.08" /><path
         id="path52"
         style="fill:#ffffff;fill-opacity:1;fill-rule:nonzero;stroke:none"
         d="m 1889.15,100.141 c 0,59.519 39.5,98.211 94.69,98.211 18.93,0 42.47,-4.602 56.54,-10.821 l -2.98,-26.242 c -15.15,5.68 -35.44,10.27 -52.75,10.27 -43.83,0 -64.12,-31.379 -64.12,-71.418 0,-41.6722 21.91,-71.9613 67.63,-71.9613 8.12,0 20.02,1.0703 29.76,4.332 v 42.4688 h -26.78 v 25.1605 h 55.46 V 15.7383 c -14.61,-7.84767 -43.02,-14.34767 -64.66,-14.34767 -52.75,0 -92.79,38.67967 -92.79,98.75037" /><path
         id="path54"
         style="fill:#ee2546;fill-opacity:1;fill-rule:nonzero;stroke:none"
         d="m 2165.49,17.3984 4.81,45.5118 c 16.28,-12.9493 44.78,-26.2696 81.04,-26.2696 30.34,0 56.61,9.2383 56.61,35.8907 0,28.1167 -29.6,38.4807 -64.75,49.9487 -40.7,13.321 -81.78,26.27 -81.78,71.051 0,32.93 22.57,75.848 93.25,75.848 34.41,0 67.71,-9.988 81.77,-18.5 l -4.06,-41.078 c -25.91,13.32 -49.22,23.32 -74.75,23.32 -24.42,0 -54.39,-9.262 -54.39,-34.41 0,-22.949 24.42,-32.191 54.76,-41.449 43.66,-13.321 93.25,-27.383 93.25,-83.9925 C 2351.25,45.1406 2339.41,0 2250.6,0 c -38.49,0 -69.56,8.51172 -85.11,17.3984" /><path
         id="path56"
         style="fill:#ee2546;fill-opacity:1;fill-rule:nonzero;stroke:none"
         d="M 2485.6,227.57 V 5.17969 h -39.59 V 227.57 h -74.37 v 36.629 h 188.71 V 227.57 h -74.75" /><path
         id="path58"
         style="fill:#ee2546;fill-opacity:1;fill-rule:nonzero;stroke:none"
         d="M 2598.49,5.17969 V 264.199 h 160.6 V 227.57 h -121 v -68.82 h 95.46 v -36.641 h -95.46 V 41.8086 h 124.7 V 5.17969 h -164.3" /><path
         id="path60"
         style="fill:#ee2546;fill-opacity:1;fill-rule:nonzero;stroke:none"
         d="M 3022.22,5.17969 2998.54,193.16 2929.71,64.0195 2859.78,193.16 2836.1,5.17969 h -41.08 l 35.16,259.01931 h 32.93 l 66.23,-124.687 65.87,124.687 h 33.3 L 3063.67,5.17969 h -41.45" /><path
         id="path62"
         style="fill:#ffffff;fill-opacity:1;fill-rule:nonzero;stroke:none"
         d="m 3254.27,156.809 -25.96,-73.1606 h 51.93 z M 3307.89,5.17969 3290.01,56 h -71.48 L 3200.38,5.17969 h -30.99 l 69.8,195.46131 h 29.89 L 3339.17,5.17969 h -31.28" /><path
         id="path64"
         style="fill:#ffffff;fill-opacity:1;fill-rule:nonzero;stroke:none"
         d="M 3357.59,88.3906 V 200.641 h 29.6 v -99.692 c 0,-37.6873 8.1,-72.0271 51.38,-72.0271 43.28,0 51.39,34.3398 51.39,72.0271 v 99.692 h 29.6 V 88.3906 c 0,-53.3398 -25.98,-87.12107 -80.99,-87.12107 -55.01,0 -80.98,33.78127 -80.98,87.12107" /><path
         id="path66"
         style="fill:#ffffff;fill-opacity:1;fill-rule:nonzero;stroke:none"
         d="m 3555.01,14.3906 3.64,34.3594 c 12.28,-9.7812 33.79,-19.8281 61.15,-19.8281 22.9,0 42.72,6.9687 42.72,27.0781 0,21.2188 -22.34,29.0508 -48.86,37.6992 -30.72,10.0508 -61.71,19.8318 -61.71,53.6098 0,24.851 17.03,57.25 70.36,57.25 25.98,0 51.1,-7.539 61.72,-13.969 l -3.08,-30.981 c -19.55,10.032 -37.14,17.582 -56.4,17.582 -18.43,0 -41.05,-6.98 -41.05,-25.961 0,-17.332 18.43,-24.3 41.33,-31.281 32.95,-10.051 70.36,-20.6677 70.36,-63.3904 0,-21.2188 -8.94,-55.28907 -75.95,-55.28907 -29.04,0 -52.5,6.42188 -64.23,13.12107" /><path
         id="path68"
         style="fill:#ffffff;fill-opacity:1;fill-rule:nonzero;stroke:none"
         d="M 3796.56,173 V 5.17969 h -29.88 V 173 h -56.13 v 27.641 h 142.41 V 173 h -56.4" /><path
         id="path70"
         style="fill:#ffffff;fill-opacity:1;fill-rule:nonzero;stroke:none"
         d="m 3912.17,176.352 v -67.864 h 36.86 c 20.66,0 35.18,10.332 35.18,34.364 0,20.937 -11.45,33.5 -39.37,33.5 z M 3993.99,5.17969 3951.54,80.2891 h -39.37 V 5.17969 h -30.44 V 200.641 h 66.19 c 39.64,0 67.29,-13.672 67.29,-56.95 0,-26.25 -13.68,-44.691 -34.9,-55.5699 l 45.23,-82.94141 h -31.55" /><path
         id="path72"
         style="fill:#ffffff;fill-opacity:1;fill-rule:nonzero;stroke:none"
         d="M 4117.96,156.809 4092,83.6484 h 51.93 z M 4171.58,5.17969 4153.71,56 h -71.49 L 4064.07,5.17969 h -30.99 l 69.81,195.46131 h 29.88 L 4202.86,5.17969 h -31.28" /><path
         id="path74"
         style="fill:#ffffff;fill-opacity:1;fill-rule:nonzero;stroke:none"
         d="M 4227.98,5.17969 V 200.641 h 29.6 V 32.832 h 86.57 V 5.17969 h -116.17" /><path
         id="path76"
         style="fill:#ffffff;fill-opacity:1;fill-rule:nonzero;stroke:none"
         d="M 4369.28,5.17969 V 200.641 h 29.88 V 5.17969 h -29.88" /><path
         id="path78"
         style="fill:#ffffff;fill-opacity:1;fill-rule:nonzero;stroke:none"
         d="m 4509.18,156.809 -25.96,-73.1606 h 51.93 z M 4562.8,5.17969 4544.93,56 h -71.49 L 4455.29,5.17969 h -30.99 l 69.81,195.46131 h 29.88 L 4594.08,5.17969 h -31.28" /><path
         id="path80"
         style="fill:#e9237a;fill-opacity:1;fill-rule:nonzero;stroke:none"
         d="m 1407.5,364.309 c 0,-27.489 -22.29,-49.77 -49.78,-49.77 h -179.23 c -27.49,0 -49.79,22.281 -49.79,49.77 V 1667.45 c 0,27.49 22.3,49.77 49.79,49.77 h 179.23 c 27.49,0 49.78,-22.28 49.78,-49.77 V 364.309" /><path
         id="path82"
         style="fill:#ee2546;fill-opacity:1;fill-rule:nonzero;stroke:none"
         d="m 287.32,364.309 c 0,-27.489 -22.297,-49.77 -49.793,-49.77 H 52.9297 c -27.4883,0 -49.78517,22.281 -49.78517,49.77 V 1668.02 c 0,27.48 22.29687,49.78 49.78517,49.78 H 237.527 c 27.496,0 49.793,-22.3 49.793,-49.78 V 364.309" /><path
         id="path84"
         style="fill:#194034;fill-opacity:1;fill-rule:nonzero;stroke:none"
         d="m 3821.46,1670.37 4.55,10 c 9.62,21.25 28.99,35.39 50.76,39.92 h 30.22 33.49 30.35 c 21.72,-4.53 41.14,-18.67 50.7,-39.92 l 4.55,-10 31.35,-69.24 c -0.98,-5.34 -2.36,-10.8 -4.75,-16.12 l -128.89,-284.94 -128.87,284.94 c -2.37,5.32 -3.83,10.78 -4.73,16.12 l 31.27,69.24" /><path
         id="path86"
         style="fill:#f46939;fill-opacity:1;fill-rule:nonzero;stroke:none"
         d="m 287.32,1668.02 v -231.84 h 507.969 c 28.266,0 51.191,24.12 51.191,53.87 v 173.88 c 0,29.75 -22.925,53.87 -51.191,53.87 H 237.527 c 27.496,0 49.793,-22.3 49.793,-49.78" /><path
         id="path88"
         style="fill:#f46939;fill-opacity:1;fill-rule:nonzero;stroke:none"
         d="m 795.289,875.348 c 28.266,0 51.191,24.121 51.191,53.867 v 173.895 c 0,29.74 -22.925,53.86 -51.191,53.86 H 287.32 V 875.348 h 507.969" /><path
         id="path90"
         style="fill:#f46939;fill-opacity:1;fill-rule:nonzero;stroke:none"
         d="m 237.527,314.539 h 557.762 c 28.266,0 51.191,24.109 51.191,53.84 v 173.902 c 0,29.739 -22.925,53.867 -51.191,53.867 H 287.32 V 364.309 c 0,-27.489 -22.297,-49.77 -49.793,-49.77" /><path
         id="path92"
         style="fill:#ee2546;fill-opacity:1;fill-rule:nonzero;stroke:none"
         d="m 3.14453,368.379 v -4.07 c 0,-25.571 19.35157,-46.387 44.16407,-49.219 -24.9375,3.621 -44.16407,26.07 -44.16407,53.289" /><path
         id="path94"
         style="fill:#ab1835;fill-opacity:1;fill-rule:nonzero;stroke:none"
         d="M 54.3359,1436.18 H 287.32 v 231.84 c 0,27.48 -22.297,49.78 -49.793,49.78 H 54.3359 c -1.0039,0 -1.9765,-0.1 -2.9726,-0.16 -1.3789,-0.05 -2.711,-0.26 -4.0547,-0.42 -24.9375,-3.6 -44.16407,-26.07 -44.16407,-53.29 v -173.88 c 0,-29.75 22.92187,-53.87 51.19137,-53.87" /><path
         id="path96"
         style="fill:#ab1835;fill-opacity:1;fill-rule:nonzero;stroke:none"
         d="M 3.14453,1103.11 V 929.215 c 0,-29.746 22.92187,-53.867 51.19137,-53.867 H 287.32 V 1156.97 H 54.3359 c -28.2695,0 -51.19137,-24.12 -51.19137,-53.86" /><path
         id="path98"
         style="fill:#ab1835;fill-opacity:1;fill-rule:nonzero;stroke:none"
         d="M 3.14453,542.281 V 368.379 c 0,-27.219 19.22657,-49.668 44.16407,-53.289 1.3437,-0.149 2.6758,-0.36 4.0547,-0.418 0.9961,-0.051 1.9687,-0.133 2.9726,-0.133 H 237.527 c 27.496,0 49.793,22.281 49.793,49.77 V 596.148 H 54.3359 c -28.2695,0 -51.19137,-24.128 -51.19137,-53.867" /><path
         id="path100"
         style="fill:#812695;fill-opacity:1;fill-rule:nonzero;stroke:none"
         d="M 1925.28,596.148 H 1407.5 V 364.309 c 0,-27.489 -22.29,-49.77 -49.78,-49.77 h 567.56 c 27.49,0 49.79,22.281 49.79,49.77 v 182.05 c 0,27.493 -22.3,49.789 -49.79,49.789" /><path
         id="path102"
         style="fill:#612274;fill-opacity:1;fill-rule:nonzero;stroke:none"
         d="m 1407.5,364.309 v 231.839 h -229.01 c -27.49,0 -49.79,-22.296 -49.79,-49.789 v -182.05 c 0,-27.489 22.3,-49.77 49.79,-49.77 h 179.23 c 27.49,0 49.78,22.281 49.78,49.77" /><path
         id="path104"
         style="fill:#0da8d2;fill-opacity:1;fill-rule:nonzero;stroke:none"
         d="m 3102.36,1466.3 c 0,0 -10.82,28.63 -21.68,48.49 -76.92,124.54 -280.69,209.22 -459.18,209.22 -244.56,0 -504.98,-112.28 -504.98,-411.63 0,-144.02 47.51,-297.43 309.7,-368.509 l 167.03,-45.191 37.36,-10.078 94.97,262.478 -133.99,32.21 c -91.5,22.46 -197.04,52.42 -197.04,145.94 0,93.55 73.87,159.02 207.54,159.02 159.15,0 215.6,-69.93 262.79,-127.11 5.26,-6.37 10.41,-12.58 15.56,-18.51 11.55,-7.64 26.42,-9.52 40.39,-3.56 l 155.6,66.47 c 23.03,9.84 34.62,37.05 25.93,60.76" /><path
         id="path106"
         style="fill:#1f58ab;fill-opacity:1;fill-rule:nonzero;stroke:none"
         d="m 2789.58,897.859 c -5.28,-25.351 -29.31,-41.105 -53.67,-35.199 L 2561,905.121 c -24.34,5.91 -39.81,31.262 -34.52,56.613 l 37.95,182.106 c 5.29,25.35 29.32,41.11 53.66,35.21 l 174.92,-42.46 c 24.35,-5.92 39.81,-31.27 34.52,-56.62 l -37.95,-182.111" /><path
         id="path108"
         style="fill:#27963c;fill-opacity:1;fill-rule:nonzero;stroke:none"
         d="m 3814.15,1542.49 108.84,-241.97 0.51,-1.1 0.29,0.65 -109.64,242.42" /><path
         id="path110"
         style="fill:#194034;fill-opacity:1;fill-rule:nonzero;stroke:none"
         d="m 3483.66,923.238 c -2.96,-6.543 -4.2,-9.277 -4.2,-9.277 l -0.53,-1.121 -14.73,-32.602 c 0,0 -8.42,-18.621 -18.45,-40.816 l 25.34,55.828 12.57,27.988" /><path
         id="path112"
         style="fill:#194034;fill-opacity:1;fill-rule:nonzero;stroke:none"
         d="m 3486.48,929.488 c -0.24,-0.547 -0.5,-1.093 -0.72,-1.609 l 0.14,0.32 0.58,1.289" /><path
         id="path114"
         style="fill:#0d6652;fill-opacity:1;fill-rule:nonzero;stroke:none"
         d="m 3416.15,774.234 c -0.05,-0.164 -0.07,-0.339 -0.12,-0.507 6,13.253 18.81,41.582 29.72,65.695 l -29.6,-65.188" /><path
         id="path116"
         style="fill:#0d6652;fill-opacity:1;fill-rule:nonzero;stroke:none"
         d="m 3485.39,927.098 -1.73,-3.86 c 0.62,1.375 1.32,2.91 2.1,4.641 l -0.37,-0.781" /><path
         id="path118"
         style="fill:#0d6652;fill-opacity:1;fill-rule:nonzero;stroke:none"
         d="m 3443.73,730.875 c 0.05,0 0.09,-0.02 0.14,-0.027 h 214.85 v 0.007 c -34.75,0.02 -179.55,0.11 -214.99,0.02" /><path
         id="path120"
         style="fill:#0d6652;fill-opacity:1;fill-rule:nonzero;stroke:none"
         d="m 3784.99,1012.48 c -41.65,0.06 -220.73,0.29 -233.98,-0.02 -18.12,-0.42 -25.3,3.75 -48.43,-47.374 -7.24,-16.027 -12.46,-27.559 -16.1,-35.598 l -0.58,-1.289 -0.14,-0.32 c -0.78,-1.731 -1.48,-3.266 -2.1,-4.641 l -12.57,-27.988 -25.34,-55.828 c -10.91,-24.113 -23.72,-52.442 -29.72,-65.695 -6,-20.528 -0.37,-39.715 27.7,-42.852 35.44,0.09 180.24,0 214.99,-0.02 4.81,-0.007 7.62,-0.007 7.62,-0.007 l 62.43,138.062 4.15,9.121 1,2.207 59.78,132.222 c 0,0 -3.21,0.01 -8.71,0.02" /><path
         id="path122"
         style="fill:#0d6652;fill-opacity:1;fill-rule:nonzero;stroke:none"
         d="m 4179.88,730.77 c 0,0 2.81,0 7.62,0.007 34.75,0.02 179.55,0.11 215,0.02 0.08,0.012 0.15,0.039 0.24,0.051 h -222.9 l 0.04,-0.078" /></g></g></svg>