<?xml version="1.0" encoding="UTF-8" standalone="no"?>
<!-- Created with Inkscape (http://www.inkscape.org/) -->

<svg
   xmlns:dc="http://purl.org/dc/elements/1.1/"
   xmlns:cc="http://creativecommons.org/ns#"
   xmlns:rdf="http://www.w3.org/1999/02/22-rdf-syntax-ns#"
   xmlns:svg="http://www.w3.org/2000/svg"
   xmlns="http://www.w3.org/2000/svg"
   xmlns:sodipodi="http://sodipodi.sourceforge.net/DTD/sodipodi-0.dtd"
   xmlns:inkscape="http://www.inkscape.org/namespaces/inkscape"
   width="60.74192mm"
   height="24.990015mm"
   id="svg2"
   version="1.1"
   inkscape:version="0.91 r13725"
   sodipodi:docname="elsa-logo 2.svg">
  <defs
     id="defs4">
    <clipPath
       id="clipPath3371"
       clipPathUnits="userSpaceOnUse">
      <path
         inkscape:connector-curvature="0"
         id="path3373"
         d="m 117,0 361,0 0,842 -361,0 0,-842 z" />
    </clipPath>
    <pattern
       id="pattern3379"
       height="168.811"
       width="193.815"
       y="0"
       x="0"
       patternUnits="userSpaceOnUse"
       patternTransform="translate(-615.27998,1386)">
      <g
         id="g3381" />
      <g
         id="g3383">
        <path
           id="path3385"
           style="fill:#70be45;fill-opacity:1;fill-rule:nonzero;stroke:none"
           d="m 0,114.9463 27.906,53.865 27.905,-53.865 -55.811,0 z" />
        <path
           id="path3387"
           style="fill:#fddd10;fill-opacity:1;fill-rule:nonzero;stroke:none"
           d="m 165.7998,105.8516 -22.403,17.274 17.274,22.404 22.404,-17.275 -17.275,-22.403 z" />
        <path
           id="path3389"
           style="fill:#2ba543;fill-opacity:1;fill-rule:nonzero;stroke:none"
           d="m 132.729,117.254 -36.729,0 0,44.562 36.729,0 0,-44.562 z" />
        <path
           id="path3391"
           style="fill:#782f9a;fill-opacity:1;fill-rule:nonzero;stroke:none"
           d="m 88.8467,68.7041 21.11,40.748 21.11,-40.748 -42.22,0 z" />
        <path
           id="path3393"
           style="fill:#e88548;fill-opacity:1;fill-rule:nonzero;stroke:none"
           d="m 144.248,99.252 -7.45,5.746 5.745,7.452 7.451,-5.747 -5.746,-7.451 z" />
        <path
           id="path3395"
           style="fill:#ed1c24;fill-opacity:1;fill-rule:nonzero;stroke:none"
           d="m 86.4365,138.624 c 0,-7.829 -6.347,-14.177 -14.177,-14.177 -7.83,0 -14.177,6.348 -14.177,14.177 0,7.829 6.347,14.176 14.177,14.176 7.83,0 14.177,-6.347 14.177,-14.176" />
        <path
           id="path3397"
           style="fill:#53c5c7;fill-opacity:1;fill-rule:nonzero;stroke:none"
           d="m 64.7861,90.1768 c -0.896,10.893 -10.331,18.987 -21.073,18.08 -10.25,-0.865 -17.981,-9.619 -17.885,-19.884 l 39.02,0.324 c -0.006,0.491 -0.021,0.983 -0.062,1.48" />
        <path
           id="path3399"
           style="fill:#ed165c;fill-opacity:1;fill-rule:nonzero;stroke:none"
           d="m 4.0537,76.9814 0,-34.939 34.679,34.678 -34.679,0.261 z" />
        <path
           id="path3401"
           style="fill:#293d9b;fill-opacity:1;fill-rule:nonzero;stroke:none"
           d="m 61.0029,44.1279 -15.665,12.079 12.079,15.666 15.666,-12.08 -12.08,-15.665 z" />
        <path
           id="path3403"
           style="fill:#53c5c7;fill-opacity:1;fill-rule:nonzero;stroke:none"
           d="m 159.4219,64.3896 c 0,-11.285 -9.15,-20.435 -20.436,-20.435 -11.285,0 -20.434,9.15 -20.434,20.435 0,11.286 9.149,20.435 20.434,20.435 11.286,0 20.436,-9.149 20.436,-20.435" />
        <path
           id="path3405"
           style="fill:#ed1c24;fill-opacity:1;fill-rule:nonzero;stroke:none"
           d="m 175.2393,49.2539 -7.451,5.745 5.746,7.452 7.451,-5.746 -5.746,-7.451 z" />
        <path
           id="path3407"
           style="fill:#70be45;fill-opacity:1;fill-rule:nonzero;stroke:none"
           d="m 111.2188,40.2383 c -0.897,-10.893 -10.332,-18.987 -21.073,-18.08 -10.25,0.865 -17.982,9.619 -17.885,19.884 l 39.019,-0.324 c -0.004,-0.491 -0.021,-0.983 -0.061,-1.48" />
        <path
           id="path3409"
           style="fill:#fddd10;fill-opacity:1;fill-rule:nonzero;stroke:none"
           d="m 87.8359,93.1934 c 0,-2.581 -2.094,-4.674 -4.674,-4.674 -2.583,0 -4.676,2.093 -4.676,4.674 0,2.583 2.093,4.675 4.676,4.675 2.58,0 4.674,-2.092 4.674,-4.675" />
        <path
           id="path3411"
           style="fill:#231f20;fill-opacity:1;fill-rule:nonzero;stroke:none"
           d="m 92.292,89.4297 -11.823,-24.947 1.132,-0.535 11.823,24.945 -1.132,0.537 z" />
        <path
           id="path3413"
           style="fill:#231f20;fill-opacity:1;fill-rule:nonzero;stroke:none"
           d="m 54.2471,30.9512 20.355,-18.648 0.847,0.923 -20.355,18.649 -0.847,-0.924 z" />
        <path
           id="path3415"
           style="fill:#231f20;fill-opacity:1;fill-rule:nonzero;stroke:none"
           d="m 149.5693,154.8389 27.092,-5.307 0.24,1.229 -27.091,5.307 -0.241,-1.229 z" />
        <path
           id="path3417"
           style="fill:#ed165c;fill-opacity:1;fill-rule:nonzero;stroke:none"
           d="m 193.8154,78.793 0,34.939 -34.679,-34.678 34.679,-0.261 z" />
        <path
           id="path3419"
           style="fill:#fddd10;fill-opacity:1;fill-rule:nonzero;stroke:none"
           d="m 164.0957,44.1279 c 0,-2.582 -2.093,-4.675 -4.674,-4.675 -2.583,0 -4.676,2.093 -4.676,4.675 0,2.581 2.093,4.674 4.676,4.674 2.581,0 4.674,-2.093 4.674,-4.674" />
        <path
           id="path3421"
           style="fill:#fddd10;fill-opacity:1;fill-rule:nonzero;stroke:none"
           d="m 26.96,39.9014 25.362,0 L 29.454,4e-4 3.94,4e-4 26.96,39.9014 Z" />
        <path
           id="path3423"
           style="fill:#293d9b;fill-opacity:1;fill-rule:nonzero;stroke:none"
           d="m 117.2451,12.3027 11.878,22.925 11.875,-22.925 -23.753,0 z" />
        <path
           id="path3425"
           style="fill:#ed1c24;fill-opacity:1;fill-rule:nonzero;stroke:none"
           d="m 177.9883,23.7656 c 0,-7.83 -6.347,-14.177 -14.177,-14.177 -7.829,0 -14.176,6.347 -14.176,14.177 0,7.829 6.347,14.177 14.176,14.177 7.83,0 14.177,-6.348 14.177,-14.177" />
        <path
           id="path3427"
           style="fill:#231f20;fill-opacity:1;fill-rule:nonzero;stroke:none"
           d="m 64.9443,162.4043 26.78,-6.697 0.305,1.215 -26.781,6.698 -0.304,-1.216 z" />
      </g>
    </pattern>
    <clipPath
       id="clipPath3439"
       clipPathUnits="userSpaceOnUse">
      <path
         inkscape:connector-curvature="0"
         id="path3441"
         d="m 117,842 361.6347,0 0,-842 L 117,0 l 0,842 z" />
    </clipPath>
    <clipPath
       id="clipPath3445"
       clipPathUnits="userSpaceOnUse">
      <path
         inkscape:connector-curvature="0"
         id="path3447"
         d="m 117,0 361,0 0,842 -361,0 0,-842 z" />
    </clipPath>
    <clipPath
       id="clipPath3465"
       clipPathUnits="userSpaceOnUse">
      <path
         inkscape:connector-curvature="0"
         id="path3467"
         d="m 117,0 361,0 0,842 -361,0 0,-842 z" />
    </clipPath>
    <clipPath
       id="clipPath3521"
       clipPathUnits="userSpaceOnUse">
      <path
         inkscape:connector-curvature="0"
         id="path3523"
         d="m 117,842 361.6347,0 0,-842 L 117,0 l 0,842 z" />
    </clipPath>
    <clipPath
       id="clipPath3527"
       clipPathUnits="userSpaceOnUse">
      <path
         inkscape:connector-curvature="0"
         id="path3529"
         d="m 117,0 361,0 0,842 -361,0 0,-842 z" />
    </clipPath>
    <clipPath
       id="clipPath3547"
       clipPathUnits="userSpaceOnUse">
      <path
         inkscape:connector-curvature="0"
         id="path3549"
         d="m 117,0 361,0 0,842 -361,0 0,-842 z" />
    </clipPath>
    <clipPath
       id="clipPath3561"
       clipPathUnits="userSpaceOnUse">
      <path
         inkscape:connector-curvature="0"
         id="path3563"
         d="m 117,842 361.6347,0 0,-842 L 117,0 l 0,842 z" />
    </clipPath>
    <clipPath
       id="clipPath3567"
       clipPathUnits="userSpaceOnUse">
      <path
         inkscape:connector-curvature="0"
         id="path3569"
         d="m 117,0 361,0 0,842 -361,0 0,-842 z" />
    </clipPath>
    <clipPath
       id="clipPath3579"
       clipPathUnits="userSpaceOnUse">
      <path
         inkscape:connector-curvature="0"
         id="path3581"
         d="m 117,0 361,0 0,842 -361,0 0,-842 z" />
    </clipPath>
    <clipPath
       id="clipPath3593"
       clipPathUnits="userSpaceOnUse">
      <path
         inkscape:connector-curvature="0"
         id="path3595"
         d="m 117,842 361.6347,0 0,-842 L 117,0 l 0,842 z" />
    </clipPath>
    <clipPath
       id="clipPath3599"
       clipPathUnits="userSpaceOnUse">
      <path
         inkscape:connector-curvature="0"
         id="path3601"
         d="m 117,0 361,0 0,842 -361,0 0,-842 z" />
    </clipPath>
    <clipPath
       id="clipPath3641"
       clipPathUnits="userSpaceOnUse">
      <path
         inkscape:connector-curvature="0"
         id="path3643"
         d="m 117,0 361,0 0,842 -361,0 0,-842 z" />
    </clipPath>
    <clipPath
       id="clipPath3669"
       clipPathUnits="userSpaceOnUse">
      <path
         inkscape:connector-curvature="0"
         id="path3671"
         d="m 117,842 361.6347,0 0,-842 L 117,0 l 0,842 z" />
    </clipPath>
    <clipPath
       id="clipPath3675"
       clipPathUnits="userSpaceOnUse">
      <path
         inkscape:connector-curvature="0"
         id="path3677"
         d="m 117,0 361,0 0,842 -361,0 0,-842 z" />
    </clipPath>
    <clipPath
       id="clipPath3719"
       clipPathUnits="userSpaceOnUse">
      <path
         inkscape:connector-curvature="0"
         id="path3721"
         d="m 117,0 361,0 0,842 -361,0 0,-842 z" />
    </clipPath>
    <clipPath
       id="clipPath3733"
       clipPathUnits="userSpaceOnUse">
      <path
         inkscape:connector-curvature="0"
         id="path3735"
         d="m 117,842 361.6347,0 0,-842 L 117,0 l 0,842 z" />
    </clipPath>
    <clipPath
       id="clipPath3739"
       clipPathUnits="userSpaceOnUse">
      <path
         inkscape:connector-curvature="0"
         id="path3741"
         d="m 117,0 361,0 0,842 -361,0 0,-842 z" />
    </clipPath>
    <clipPath
       id="clipPath3783"
       clipPathUnits="userSpaceOnUse">
      <path
         inkscape:connector-curvature="0"
         id="path3785"
         d="m 117,0 361,0 0,842 -361,0 0,-842 z" />
    </clipPath>
    <clipPath
       id="clipPath3797"
       clipPathUnits="userSpaceOnUse">
      <path
         inkscape:connector-curvature="0"
         id="path3799"
         d="m 117,842 361.6347,0 0,-842 L 117,0 l 0,842 z" />
    </clipPath>
    <clipPath
       id="clipPath3803"
       clipPathUnits="userSpaceOnUse">
      <path
         inkscape:connector-curvature="0"
         id="path3805"
         d="m 117,0 361,0 0,842 -361,0 0,-842 z" />
    </clipPath>
    <clipPath
       id="clipPath3841"
       clipPathUnits="userSpaceOnUse">
      <path
         inkscape:connector-curvature="0"
         id="path3843"
         d="m 131.9002,26.90876 328.8818,0 0,238.0703 -328.8818,0 0,-238.0703 z" />
    </clipPath>
    <clipPath
       id="clipPath3853"
       clipPathUnits="userSpaceOnUse">
      <path
         inkscape:connector-curvature="0"
         id="path3855"
         d="m 117,842 361.6347,0 0,-842 L 117,0 l 0,842 z" />
    </clipPath>
    <clipPath
       id="clipPath3859"
       clipPathUnits="userSpaceOnUse">
      <path
         inkscape:connector-curvature="0"
         id="path3861"
         d="m 117,0 361,0 0,842 -361,0 0,-842 z" />
    </clipPath>
    <clipPath
       id="clipPath3871"
       clipPathUnits="userSpaceOnUse">
      <path
         inkscape:connector-curvature="0"
         id="path3873"
         d="m 117,0 361,0 0,842 -361,0 0,-842 z" />
    </clipPath>
  </defs>
  <sodipodi:namedview
     id="base"
     pagecolor="#ffffff"
     bordercolor="#666666"
     borderopacity="1.0"
     inkscape:pageopacity="0.0"
     inkscape:pageshadow="2"
     inkscape:zoom="3.959798"
     inkscape:cx="101.94419"
     inkscape:cy="2.1137226"
     inkscape:document-units="px"
     inkscape:current-layer="g4323"
     showgrid="false"
     inkscape:window-width="1165"
     inkscape:window-height="808"
     inkscape:window-x="1943"
     inkscape:window-y="139"
     inkscape:window-maximized="0"
     fit-margin-top="0"
     fit-margin-left="0"
     fit-margin-right="0"
     fit-margin-bottom="0" />
  <metadata
     id="metadata7">
    <rdf:RDF>
      <cc:Work
         rdf:about="">
        <dc:format>image/svg+xml</dc:format>
        <dc:type
           rdf:resource="http://purl.org/dc/dcmitype/StillImage" />
        <dc:title></dc:title>
      </cc:Work>
    </rdf:RDF>
  </metadata>
  <g
     inkscape:label="Layer 1"
     inkscape:groupmode="layer"
     id="layer1"
     transform="translate(1.2793771e-6,-963.8149)">
    <g
       id="g4323"
       transform="translate(-966.96829,1259.262)">
      <g
         id="g3591"
         clip-path="url(#clipPath3593)"
         transform="matrix(1.25,0,0,-1.25,706.77849,656.90828)">
        <g
           id="g3597"
           clip-path="url(#clipPath3599)">
          <path
             d="m 212.0619,733.024 0,-16.1468 c 0.147,1.1986 1.1639,2.1378 2.4002,2.1378 l 7.1121,0 0,11.8712 -7.1121,0 c -1.2363,0 -2.2532,0.9392 -2.4002,2.1378"
             style="fill:#ee2e3f;fill-opacity:1;fill-rule:nonzero;stroke:none"
             id="path3603"
             inkscape:connector-curvature="0" />
          <path
             d="m 212.4303,755.7849 0,3.6693 c 0,0.7145 0.3177,1.3523 0.8128,1.7982 -0.7035,-0.427 -1.181,-1.1931 -1.181,-2.0722 l 0,-21.8689 c 0.147,1.198 1.164,2.1378 2.4003,2.1378 l 7.112,0 0,13.9058 -6.7141,0 c -1.3365,0 -2.43,1.0935 -2.43,2.43"
             style="fill:#ee2e3f;fill-opacity:1;fill-rule:nonzero;stroke:none"
             id="path3605"
             inkscape:connector-curvature="0" />
          <path
             d="m 239.4684,761.8842 -24.6082,0 c -0.6221,0 -1.1864,-0.2436 -1.6172,-0.6324 0.367,0.223 0.791,0.3585 1.2491,0.3585 l 4.6522,0 c 1.3365,0 2.43,-1.0935 2.43,-2.4301 l 0,-5.8253 17.8941,0 c 1.3365,0 2.43,1.0935 2.43,2.43 l 0,3.6693 c 0,1.3365 -1.0935,2.43 -2.43,2.43"
             style="fill:#ff7532;fill-opacity:1;fill-rule:nonzero;stroke:none"
             id="path3607"
             inkscape:connector-curvature="0" />
          <path
             d="m 219.1443,761.6102 -4.6523,0 c -0.4581,0 -0.8821,-0.1355 -1.249,-0.3578 -0.4945,-0.4459 -0.8129,-1.0838 -0.8129,-1.7982 l 0,-3.6694 c 0,-1.3365 1.0935,-2.43 2.43,-2.43 l 6.7142,0 0,5.8254 c 0,1.3365 -1.0935,2.43 -2.43,2.43"
             style="fill:#9b002d;fill-opacity:1;fill-rule:nonzero;stroke:none"
             id="path3609"
             inkscape:connector-curvature="0" />
          <path
             d="m 219.1443,710.4526 20.324,0 c 1.3365,0 2.43,1.0935 2.43,2.43 l 0,3.7028 c 0,1.3365 -1.0935,2.43 -2.43,2.43 l -17.894,0 0,-6.1328 c 0,-1.3365 -1.0935,-2.43 -2.43,-2.43"
             style="fill:#ff7532;fill-opacity:1;fill-rule:nonzero;stroke:none"
             id="path3611"
             inkscape:connector-curvature="0" />
          <path
             d="m 212.0619,712.8826 0,3.995 c -0.0122,-0.0972 -0.0298,-0.1926 -0.0298,-0.2922 l 0,-3.7028 c 0,-1.3365 1.0935,-2.43 2.43,-2.43 l 0.0298,0 c -1.3365,0 -2.43,1.0935 -2.43,2.43"
             style="fill:#e88548;fill-opacity:1;fill-rule:nonzero;stroke:none"
             id="path3613"
             inkscape:connector-curvature="0" />
          <path
             d="m 212.0619,716.8774 0,-3.9949 c 0,-1.3365 1.0935,-2.4301 2.43,-2.4301 l 4.6522,0 c 1.3365,0 2.4301,1.0936 2.4301,2.4301 l 0,6.1327 -7.1121,0 c -1.2363,0 -2.2532,-0.9392 -2.4002,-2.1378"
             style="fill:#9b002d;fill-opacity:1;fill-rule:nonzero;stroke:none"
             id="path3615"
             inkscape:connector-curvature="0" />
          <path
             d="m 239.4684,730.8862 c 1.3365,0 2.43,1.0935 2.43,2.43 l 0,3.7027 c 0,1.3365 -1.0935,2.4301 -2.43,2.4301 l -17.8941,0 0,-8.5628 17.8941,0 z"
             style="fill:#ff7532;fill-opacity:1;fill-rule:nonzero;stroke:none"
             id="path3617"
             inkscape:connector-curvature="0" />
          <path
             d="m 212.0322,737.0191 0,-3.7028 c 0,-0.1002 0.0176,-0.1956 0.0298,-0.2922 l 0,4.2872 c -0.0122,-0.0972 -0.0298,-0.192 -0.0298,-0.2922"
             style="fill:#e88548;fill-opacity:1;fill-rule:nonzero;stroke:none"
             id="path3619"
             inkscape:connector-curvature="0" />
          <path
             d="m 212.0619,737.3112 0,-4.2871 c 0.147,-1.1986 1.1639,-2.1378 2.4002,-2.1378 l 7.1121,0 0,8.5627 -7.1121,0 c -1.2363,0 -2.2532,-0.9392 -2.4002,-2.1378"
             style="fill:#9b002d;fill-opacity:1;fill-rule:nonzero;stroke:none"
             id="path3621"
             inkscape:connector-curvature="0" />
          <path
             d="m 252.548,719.0152 6.0246,0 0,40.4391 c 0,1.3365 -1.0935,2.43 -2.43,2.43 l -3.5946,0 c -1.3365,0 -2.43,-1.0935 -2.43,-2.43 l 0,-42.8691 c 0,1.3365 1.0935,2.43 2.43,2.43"
             style="fill:#d93a71;fill-opacity:1;fill-rule:nonzero;stroke:none"
             id="path3623"
             inkscape:connector-curvature="0" />
          <path
             d="m 281.1553,719.0152 -22.5827,0 0,-6.1327 c 0,-1.3365 -1.0935,-2.4301 -2.43,-2.4301 l 25.0127,0 c 1.3365,0 2.43,1.0936 2.43,2.4301 l 0,3.7027 c 0,1.3365 -1.0935,2.43 -2.43,2.43"
             style="fill:#782f93;fill-opacity:1;fill-rule:nonzero;stroke:none"
             id="path3625"
             inkscape:connector-curvature="0" />
          <path
             d="m 258.5726,712.8826 0,6.1328 -6.0246,0 c -1.3365,0 -2.43,-1.0935 -2.43,-2.43 l 0,-3.7028 c 0,-1.3365 1.0935,-2.43 2.43,-2.43 l 3.5946,0 c 1.3365,0 2.43,1.0935 2.43,2.43"
             style="fill:#5d1e6d;fill-opacity:1;fill-rule:nonzero;stroke:none"
             id="path3627"
             inkscape:connector-curvature="0" />
          <path
             d="m 330.8953,751.9124 c -6.9292,10.1034 -20.6114,12.7363 -30.5617,5.8818 -9.4959,-6.5416 -12.1525,-19.3587 -6.3527,-29.2974 l 37.7971,22.0086 c -0.277,0.4751 -0.5674,0.9453 -0.8827,1.407"
             style="fill:#009fcc;fill-opacity:1;fill-rule:nonzero;stroke:none"
             id="path3629"
             inkscape:connector-curvature="0" />
          <path
             d="m 285.603,718.3478 c 6.9286,-10.101 20.6114,-12.7363 30.5611,-5.8818 9.4959,6.5416 12.1537,19.3593 6.3533,29.298 l -37.7971,-22.008 c 0.2764,-0.4751 0.5668,-0.9465 0.8827,-1.4082"
             style="fill:#2c3792;fill-opacity:1;fill-rule:nonzero;stroke:none"
             id="path3631"
             inkscape:connector-curvature="0" />
          <path
             d="m 328.3976,710.0619 c -1.3365,0 -1.927,0.9708 -1.3122,2.1579 l 24.6118,47.5068 c 0.6142,1.187 1.6208,1.187 2.235,0 l 24.6112,-47.5068 c 0.6148,-1.1871 0.0243,-2.1579 -1.3122,-2.1579 l -48.8336,0 z"
             style="fill:#27963c;fill-opacity:1;fill-rule:nonzero;stroke:none"
             id="path3633"
             inkscape:connector-curvature="0" />
          <path
             d="m 344.4941,710.0564 c -1.3365,0 -1.927,0.9707 -1.3122,2.1578 l 8.5135,16.4336 c 0.6148,1.187 1.6208,1.187 2.2356,0 l 8.5154,-16.4336 c 0.6142,-1.1871 0.0243,-2.1578 -1.3122,-2.1578 l -16.6401,0 z"
             style="fill:#dee455;fill-opacity:1;fill-rule:nonzero;stroke:none"
             id="path3635"
             inkscape:connector-curvature="0" />
        </g>
      </g>
      <g
         id="g3639"
         clip-path="url(#clipPath3641)"
         transform="matrix(1.25,0,0,-1.25,706.77849,656.90828)">
        <g
           id="g3645"
           transform="matrix(0.6075036,0,0,0.6075036,117,0)">
          <g
             id="text3647"
             style="font-variant:normal;font-weight:normal;font-size:16.99830055px;font-family:NexaLight;-inkscape-font-specification:NexaLight;writing-mode:lr-tb;fill:#363535;fill-opacity:1;fill-rule:nonzero;stroke:none"
             transform="matrix(1,0,0,-1,148.375,1137.759)">
            <path
               inkscape:connector-curvature="0"
               id="path3697"
               d="m 1.6682902,-12.391828 7.8351542,0 0,1.410992 -6.158564,0 0,3.6685788 5.9012655,0 0,1.4109917 -5.9012655,0 0,4.4902738 6.3079631,0 0,1.4109917 -7.9845533,0 0,-12.391828 z" />
            <path
               inkscape:connector-curvature="0"
               id="path3699"
               d="m 16.246922,-10.740137 -2.274186,6.1668638 4.556673,0 -2.282487,-6.1668638 z m -0.946194,-1.651691 1.900689,0 L 21.924089,0 l -1.74299,0 -1.128793,-3.1788814 -5.585867,0 L 12.337645,0 10.569756,0 15.300728,-12.391828 Z" />
            <path
               inkscape:connector-curvature="0"
               id="path3701"
               d="m 29.948415,-5.809966 q 0.539497,0.1825989 1.045794,0.7801954 0.514597,0.5975965 1.029194,1.6433904 L 33.724893,0 31.923803,0 30.338513,-3.1788814 Q 29.724316,-4.4238741 29.14332,-4.8305717 28.570623,-5.2372694 27.574629,-5.2372694 l -1.82599,0 0,5.2372694 -1.67659,0 0,-12.391828 3.784778,0 q 2.124788,0 3.170582,0.888095 1.045793,0.888095 1.045793,2.6808846 0,1.1702932 -0.547796,1.9421887 -0.539497,0.7718954 -1.576991,1.0706937 z m -4.199776,-5.20407 0,4.3989747 2.108188,0 q 1.211793,0 1.825989,-0.5560967 0.622497,-0.5643967 0.622497,-1.6516904 0,-1.0872936 -0.622497,-1.6350906 -0.614196,-0.556097 -1.825989,-0.556097 l -2.108188,0 z" />
            <path
               inkscape:connector-curvature="0"
               id="path3703"
               d="m 35.103948,-12.391828 1.67659,0 0,10.9808363 6.034065,0 0,1.4109917 -7.710655,0 0,-12.391828 z" />
            <path
               inkscape:connector-curvature="0"
               id="path3705"
               d="m 40.626735,-12.391828 1.80109,0 3.43618,5.0961707 3.41128,-5.0961707 1.801089,0 L 46.694,-5.9012655 46.694,0 l -1.68489,0 0,-5.9012655 -4.382375,-6.4905625 z" />
            <path
               inkscape:connector-curvature="0"
               id="path3707"
               d="m 57.864671,-12.391828 1.67659,0 0,10.9808363 6.034065,0 0,1.4109917 -7.710655,0 0,-12.391828 z" />
            <path
               inkscape:connector-curvature="0"
               id="path3709"
               d="m 67.213739,-12.391828 7.835154,0 0,1.410992 -6.158564,0 0,3.6685788 5.901265,0 0,1.4109917 -5.901265,0 0,4.4902738 6.307963,0 0,1.4109917 -7.984553,0 0,-12.391828 z" />
            <path
               inkscape:connector-curvature="0"
               id="path3711"
               d="m 81.792365,-10.740137 -2.274187,6.1668638 4.556674,0 -2.282487,-6.1668638 z m -0.946194,-1.651691 1.900688,0 L 87.469532,0 l -1.74299,0 -1.128793,-3.1788814 -5.585868,0 L 77.883088,0 l -1.76789,0 4.730973,-12.391828 z" />
            <path
               inkscape:connector-curvature="0"
               id="path3713"
               d="m 95.493859,-5.809966 q 0.539497,0.1825989 1.045794,0.7801954 0.514597,0.5975965 1.029194,1.6433904 L 99.270337,0 97.469248,0 95.883957,-3.1788814 q -0.614196,-1.2449927 -1.195193,-1.6516903 -0.572697,-0.4066977 -1.568691,-0.4066977 l -1.825989,0 0,5.2372694 -1.67659,0 0,-12.391828 3.784778,0 q 2.124787,0 3.170581,0.888095 1.045794,0.888095 1.045794,2.6808846 0,1.1702932 -0.547797,1.9421887 -0.539497,0.7718954 -1.576991,1.0706937 z m -4.199775,-5.20407 0,4.3989747 2.108188,0 q 1.211792,0 1.825989,-0.5560967 0.622496,-0.5643967 0.622496,-1.6516904 0,-1.0872936 -0.622496,-1.6350906 -0.614197,-0.556097 -1.825989,-0.556097 l -2.108188,0 z" />
            <path
               inkscape:connector-curvature="0"
               id="path3715"
               d="m 100.64939,-12.391828 2.25759,0 5.49457,10.3666398 0,-10.3666398 1.62679,0 0,12.391828 -2.25759,0 -5.49457,-10.366639 0,10.366639 -1.62679,0 0,-12.391828 z" />
            <path
               inkscape:connector-curvature="0"
               id="path3717"
               d="m 112.6162,-12.391828 1.67659,0 0,12.391828 -1.67659,0 0,-12.391828 z" />
            <path
               inkscape:connector-curvature="0"
               id="path3719"
               d="m 116.15184,-12.391828 2.25759,0 5.49457,10.3666398 0,-10.3666398 1.62679,0 0,12.391828 -2.25759,0 -5.49457,-10.366639 0,10.366639 -1.62679,0 0,-12.391828 z" />
            <path
               inkscape:connector-curvature="0"
               id="path3722"
               d="m 136.568,-1.7678897 0,-3.3282805 -2.73898,0 0,-1.3777919 4.39897,0 0,5.3202688 q -0.97109,0.68889602 -2.14138,1.04579393 -1.1703,0.34859796 -2.49829,0.34859796 -2.90498,0 -4.54837,-1.69319009 -1.63509,-1.70149 -1.63509,-4.7309723 0,-3.0377823 1.63509,-4.7309722 1.64339,-1.70149 4.54837,-1.70149 1.21179,0 2.29909,0.298798 1.09559,0.298798 2.01689,0.879795 l 0,1.7844895 q -0.9296,-0.7884955 -1.97539,-1.1868935 -1.0458,-0.398397 -2.19949,-0.398397 -2.27419,0 -3.41958,1.2698923 -1.13709,1.2698926 -1.13709,3.7847779 0,2.5065853 1.13709,3.7764779 1.14539,1.2698926 3.41958,1.2698926 0.8881,0 1.58529,-0.1493992 0.6972,-0.1576991 1.25329,-0.4813972 z" />
          </g>
        </g>
        <g
           id="g3651"
           transform="matrix(0.6075036,0,0,0.6075036,117,0)" />
        <g
           id="g3653"
           transform="matrix(0.6075036,0,0,0.6075036,117,0)">
          <g
             id="text3655"
             style="font-variant:normal;font-weight:normal;font-size:16.99830055px;font-family:NexaLight;-inkscape-font-specification:NexaLight;writing-mode:lr-tb;fill:#ee2e3f;fill-opacity:1;fill-rule:nonzero;stroke:none"
             transform="matrix(1,0,0,-1,292.0106,1137.759)">
            <path
               inkscape:connector-curvature="0"
               id="path3725"
               d="m 9.0967468,-11.98513 0,1.635091 q -0.9544944,-0.456498 -1.8010895,-0.680596 -0.846595,-0.224099 -1.6350904,-0.224099 -1.369492,0 -2.1164876,0.531197 -0.7386957,0.531197 -0.7386957,1.5105909 0,0.8216952 0.4896971,1.2449927 0.4979971,0.4149976 1.875789,0.6722961 l 1.0125941,0.2074988 q 1.875789,0.3568979 2.7638839,1.2615926 0.8963947,0.8963947 0.8963947,2.4069859 0,1.8010895 -1.2117929,2.73068403 -1.203493,0.92959456 -3.5357793,0.92959456 -0.8797949,0 -1.875789,-0.19919883 -0.9876943,-0.19919884 -2.050088,-0.58929656 l 0,-1.7263899 q 1.020894,0.5726967 2.0002883,0.863195 0.9793942,0.2904983 1.9255887,0.2904983 1.4358916,0 2.216087,-0.5643967 0.7801955,-0.5643967 0.7801955,-1.6101906 0,-0.9129947 -0.5643967,-1.4275917 -0.5560968,-0.514597 -1.8342893,-0.7718955 L 4.6728727,-5.6937667 Q 2.7970836,-6.0672645 1.9587885,-6.8640598 1.1204934,-7.6608552 1.1204934,-9.0801469 q 0,-1.6433901 1.1536933,-2.5895851 1.1619932,-0.946194 3.1954813,-0.946194 0.8714949,0 1.7761896,0.157699 0.9046947,0.157699 1.8508892,0.473097 z" />
            <path
               inkscape:connector-curvature="0"
               id="path3727"
               d="m 10.710124,-12.391828 10.482839,0 0,1.410992 -4.398974,0 0,10.980836 -1.684891,0 0,-10.980836 -4.398974,0 0,-1.410992 z" />
            <path
               inkscape:connector-curvature="0"
               id="path3729"
               d="m 22.763181,-12.391828 7.835154,0 0,1.410992 -6.158564,0 0,3.6685788 5.901266,0 0,1.4109917 -5.901266,0 0,4.4902738 6.307963,0 0,1.4109917 -7.984553,0 0,-12.391828 z" />
            <path
               inkscape:connector-curvature="0"
               id="path3731"
               d="m 33.200137,-12.391828 2.498286,0 3.162281,8.4327512 3.178882,-8.4327512 2.498285,0 0,12.391828 -1.635091,0 0,-10.881236 -3.195481,8.4991499 -1.68489,0 -3.195481,-8.4991499 0,10.881236 -1.626791,0 0,-12.391828 z" />
          </g>
        </g>
        <g
           id="g3659"
           transform="matrix(0.6075036,0,0,0.6075036,117,0)">
          <g
             id="text3661"
             style="font-variant:normal;font-weight:normal;font-size:16.99830055px;font-family:NexaLight;-inkscape-font-specification:NexaLight;writing-mode:lr-tb;fill:#363535;fill-opacity:1;fill-rule:nonzero;stroke:none"
             transform="matrix(1,0,0,-1,342.12163,1137.759)">
            <path
               inkscape:connector-curvature="0"
               id="path3734"
               d="m 5.809966,-10.740137 -2.2741867,6.1668638 4.5566734,0 -2.2824867,-6.1668638 z m -0.9461945,-1.651691 1.9006889,0 L 11.487133,0 9.744143,0 8.6153496,-3.1788814 l -5.5858673,0 L 1.9006889,0 0.13279922,0 4.8637715,-12.391828 Z" />
            <path
               inkscape:connector-curvature="0"
               id="path3736"
               d="m 12.561983,-12.391828 1.68489,0 0,7.5280565 q 0,1.9919883 0.722096,2.8717832 0.722096,0.8714949 2.340586,0.8714949 1.610191,0 2.332287,-0.8714949 0.722096,-0.8797949 0.722096,-2.8717832 l 0,-7.5280565 1.68489,0 0,7.7355552 q 0,2.4235859 -1.203493,3.66027863 -1.195193,1.23669276 -3.53578,1.23669276 -2.348886,0 -3.552379,-1.23669276 -1.195193,-1.23669273 -1.195193,-3.66027863 l 0,-7.7355552 z" />
            <path
               inkscape:connector-curvature="0"
               id="path3738"
               d="m 31.791176,-11.98513 0,1.635091 q -0.954494,-0.456498 -1.801089,-0.680596 -0.846595,-0.224099 -1.635091,-0.224099 -1.369492,0 -2.116487,0.531197 -0.738696,0.531197 -0.738696,1.5105909 0,0.8216952 0.489697,1.2449927 0.497997,0.4149976 1.875789,0.6722961 l 1.012594,0.2074988 q 1.875789,0.3568979 2.763884,1.2615926 0.896395,0.8963947 0.896395,2.4069859 0,1.8010895 -1.211793,2.73068403 -1.203493,0.92959456 -3.535779,0.92959456 -0.879795,0 -1.875789,-0.19919883 -0.987695,-0.19919884 -2.050088,-0.58929656 l 0,-1.7263899 q 1.020894,0.5726967 2.000288,0.863195 0.979394,0.2904983 1.925589,0.2904983 1.435891,0 2.216087,-0.5643967 0.780195,-0.5643967 0.780195,-1.6101906 0,-0.9129947 -0.564397,-1.4275917 -0.556096,-0.514597 -1.834289,-0.7718955 l -1.020894,-0.1991988 q -1.875789,-0.3734978 -2.714084,-1.1702931 -0.838295,-0.7967954 -0.838295,-2.2160871 0,-1.6433901 1.153693,-2.5895851 1.161993,-0.946194 3.195481,-0.946194 0.871495,0 1.77619,0.157699 0.904695,0.157699 1.850889,0.473097 z" />
            <path
               inkscape:connector-curvature="0"
               id="path3740"
               d="m 33.404554,-12.391828 10.482838,0 0,1.410992 -4.398974,0 0,10.980836 -1.68489,0 0,-10.980836 -4.398974,0 0,-1.410992 z" />
            <path
               inkscape:connector-curvature="0"
               id="path3742"
               d="m 51.333978,-5.809966 q 0.539497,0.1825989 1.045794,0.7801954 0.514597,0.5975965 1.029194,1.6433904 L 55.110456,0 53.309366,0 51.724075,-3.1788814 q -0.614196,-1.2449927 -1.195193,-1.6516903 -0.572696,-0.4066977 -1.56869,-0.4066977 l -1.82599,0 0,5.2372694 -1.67659,0 0,-12.391828 3.784778,0 q 2.124788,0 3.170581,0.888095 1.045794,0.888095 1.045794,2.6808846 0,1.1702932 -0.547796,1.9421887 -0.539497,0.7718954 -1.576991,1.0706937 z m -4.199776,-5.20407 0,4.3989747 2.108188,0 q 1.211793,0 1.825989,-0.5560967 0.622497,-0.5643967 0.622497,-1.6516904 0,-1.0872936 -0.622497,-1.6350906 -0.614196,-0.556097 -1.825989,-0.556097 l -2.108188,0 z" />
            <path
               inkscape:connector-curvature="0"
               id="path3744"
               d="m 60.631183,-10.740137 -2.274187,6.1668638 4.556673,0 -2.282486,-6.1668638 z m -0.946195,-1.651691 1.900689,0 L 66.308349,0 64.56536,0 l -1.128794,-3.1788814 -5.585867,0 L 56.721905,0 54.954016,0 59.684988,-12.391828 Z" />
            <path
               inkscape:connector-curvature="0"
               id="path3746"
               d="m 68.643289,-12.391828 1.67659,0 0,10.9808363 6.034065,0 0,1.4109917 -7.710655,0 0,-12.391828 z" />
            <path
               inkscape:connector-curvature="0"
               id="path3748"
               d="m 77.992356,-12.391828 1.676591,0 0,12.391828 -1.676591,0 0,-12.391828 z" />
            <path
               inkscape:connector-curvature="0"
               id="path3750"
               d="m 85.669677,-10.740137 -2.274187,6.1668638 4.556673,0 -2.282486,-6.1668638 z m -0.946195,-1.651691 1.900689,0 L 91.346843,0 89.603854,0 88.47506,-3.1788814 l -5.585867,0 L 81.7604,0 79.99251,0 84.723482,-12.391828 Z" />
          </g>
        </g>
      </g>
    </g>
  </g>
</svg>
